<mxfile host="app.diagrams.net" agent="Mozilla/5.0 (Macintosh; Intel Mac OS X 10_15_7) AppleWebKit/537.36 (KHTML, like Gecko) Chrome/125.0.0.0 Safari/537.36" version="24.7.10">
  <diagram name="Page-1" id="1BoghvB5DJdIEKhOi30n">
    <mxGraphModel>
      <root>
        <mxCell id="0" />
        <mxCell id="1" parent="0" />
        <mxCell id="2" value="Order Confirmation" style="whiteSpace=wrap;strokeWidth=2;verticalAlign=top;" vertex="1" parent="1">
          <mxGeometry x="703" y="685" width="475" height="84" as="geometry" />
        </mxCell>
        <mxCell id="3" value="Place Order" style="whiteSpace=wrap;strokeWidth=2;" vertex="1" parent="1">
          <mxGeometry x="738" y="710" width="99" height="34" as="geometry" />
        </mxCell>
        <mxCell id="4" value="Track Order" style="whiteSpace=wrap;strokeWidth=2;" vertex="1" parent="1">
          <mxGeometry x="887" y="710" width="99" height="34" as="geometry" />
        </mxCell>
        <mxCell id="5" value="Return Items" style="whiteSpace=wrap;strokeWidth=2;" vertex="1" parent="1">
          <mxGeometry x="1036" y="710" width="107" height="34" as="geometry" />
        </mxCell>
        <mxCell id="6" value="Checkout Page" style="whiteSpace=wrap;strokeWidth=2;verticalAlign=top;" vertex="1" parent="1">
          <mxGeometry x="126" y="533" width="459" height="84" as="geometry" />
        </mxCell>
        <mxCell id="7" value="Fill Shipping Details" style="whiteSpace=wrap;strokeWidth=2;" vertex="1" parent="1">
          <mxGeometry x="161" y="558" width="156" height="34" as="geometry" />
        </mxCell>
        <mxCell id="8" value="Select Payment Method" style="whiteSpace=wrap;strokeWidth=2;" vertex="1" parent="1">
          <mxGeometry x="367" y="558" width="183" height="34" as="geometry" />
        </mxCell>
        <mxCell id="9" value="Cart Page" style="whiteSpace=wrap;strokeWidth=2;verticalAlign=top;" vertex="1" parent="1">
          <mxGeometry y="381" width="575" height="84" as="geometry" />
        </mxCell>
        <mxCell id="10" value="Update Quantity" style="whiteSpace=wrap;strokeWidth=2;" vertex="1" parent="1">
          <mxGeometry x="35" y="406" width="133" height="34" as="geometry" />
        </mxCell>
        <mxCell id="11" value="Remove Item" style="whiteSpace=wrap;strokeWidth=2;" vertex="1" parent="1">
          <mxGeometry x="218" y="406" width="108" height="34" as="geometry" />
        </mxCell>
        <mxCell id="12" value="Proceed to Checkout" style="whiteSpace=wrap;strokeWidth=2;" vertex="1" parent="1">
          <mxGeometry x="377" y="406" width="164" height="34" as="geometry" />
        </mxCell>
        <mxCell id="13" value="Product Page" style="whiteSpace=wrap;strokeWidth=2;verticalAlign=top;" vertex="1" parent="1">
          <mxGeometry x="605" y="254" width="728" height="363" as="geometry" />
        </mxCell>
        <mxCell id="14" value="Add to Cart" style="whiteSpace=wrap;strokeWidth=2;" vertex="1" parent="1">
          <mxGeometry x="766" y="279" width="97" height="34" as="geometry" />
        </mxCell>
        <mxCell id="15" value="Review Order" style="whiteSpace=wrap;strokeWidth=2;" vertex="1" parent="1">
          <mxGeometry x="883" y="558" width="111" height="34" as="geometry" />
        </mxCell>
        <mxCell id="16" value="View Similar Products" style="whiteSpace=wrap;strokeWidth=2;" vertex="1" parent="1">
          <mxGeometry x="1128" y="279" width="170" height="34" as="geometry" />
        </mxCell>
        <mxCell id="17" value="Home Page" style="whiteSpace=wrap;strokeWidth=2;verticalAlign=top;" vertex="1" parent="1">
          <mxGeometry x="775" width="777" height="186" as="geometry" />
        </mxCell>
        <mxCell id="18" value="Click on Home Page" style="whiteSpace=wrap;strokeWidth=2;" vertex="1" parent="1">
          <mxGeometry x="1190" y="25" width="156" height="34" as="geometry" />
        </mxCell>
        <mxCell id="19" value="View Products" style="whiteSpace=wrap;strokeWidth=2;" vertex="1" parent="1">
          <mxGeometry x="1030" y="127" width="116" height="34" as="geometry" />
        </mxCell>
        <mxCell id="20" value="View Promotions" style="whiteSpace=wrap;strokeWidth=2;" vertex="1" parent="1">
          <mxGeometry x="1195" y="127" width="134" height="34" as="geometry" />
        </mxCell>
        <mxCell id="21" value="Search for Items" style="whiteSpace=wrap;strokeWidth=2;" vertex="1" parent="1">
          <mxGeometry x="1379" y="127" width="132" height="34" as="geometry" />
        </mxCell>
        <mxCell id="22" value="View Products" style="curved=1;startArrow=none;endArrow=block;exitX=0.12;exitY=0.99;entryX=0.5;entryY=0;" edge="1" parent="1" source="18" target="19">
          <mxGeometry relative="1" as="geometry">
            <Array as="points">
              <mxPoint x="1087" y="93" />
            </Array>
          </mxGeometry>
        </mxCell>
        <mxCell id="23" value="View Promotions" style="curved=1;startArrow=none;endArrow=block;exitX=0.49;exitY=0.99;entryX=0.5;entryY=0;" edge="1" parent="1" source="18" target="20">
          <mxGeometry relative="1" as="geometry">
            <Array as="points">
              <mxPoint x="1262" y="93" />
            </Array>
          </mxGeometry>
        </mxCell>
        <mxCell id="24" value="Search for Items" style="curved=1;startArrow=none;endArrow=block;exitX=0.87;exitY=0.99;entryX=0.5;entryY=0;" edge="1" parent="1" source="18" target="21">
          <mxGeometry relative="1" as="geometry">
            <Array as="points">
              <mxPoint x="1445" y="93" />
            </Array>
          </mxGeometry>
        </mxCell>
        <mxCell id="25" value="Add to Cart" style="curved=1;startArrow=none;endArrow=block;exitX=0;exitY=0.75;entryX=0.5;entryY=0;" edge="1" parent="1" source="19" target="14">
          <mxGeometry relative="1" as="geometry">
            <Array as="points">
              <mxPoint x="815" y="186" />
            </Array>
          </mxGeometry>
        </mxCell>
        <mxCell id="26" value="View Reviews" style="curved=1;startArrow=none;endArrow=block;exitX=0.52;exitY=0.99;entryX=1;entryY=0.05;" edge="1" parent="1" source="19" target="15">
          <mxGeometry relative="1" as="geometry">
            <Array as="points">
              <mxPoint x="1093" y="186" />
              <mxPoint x="1093" y="533" />
            </Array>
          </mxGeometry>
        </mxCell>
        <mxCell id="27" value="View Similar Products" style="curved=1;startArrow=none;endArrow=block;exitX=0.93;exitY=0.99;entryX=0.5;entryY=0;" edge="1" parent="1" source="19" target="16">
          <mxGeometry relative="1" as="geometry">
            <Array as="points">
              <mxPoint x="1213" y="186" />
            </Array>
          </mxGeometry>
        </mxCell>
        <mxCell id="28" value="Update Quantity" style="curved=1;startArrow=none;endArrow=block;exitX=0.06;exitY=0.99;entryX=1;entryY=0.35;" edge="1" parent="1" source="14" target="10">
          <mxGeometry relative="1" as="geometry">
            <Array as="points">
              <mxPoint x="684" y="347" />
              <mxPoint x="684" y="381" />
            </Array>
          </mxGeometry>
        </mxCell>
        <mxCell id="29" value="Remove Item" style="curved=1;startArrow=none;endArrow=block;exitX=0.49;exitY=0.99;entryX=1.01;entryY=0.37;" edge="1" parent="1" source="14" target="11">
          <mxGeometry relative="1" as="geometry">
            <Array as="points">
              <mxPoint x="810" y="347" />
              <mxPoint x="810" y="381" />
            </Array>
          </mxGeometry>
        </mxCell>
        <mxCell id="30" value="Proceed to Checkout" style="curved=1;startArrow=none;endArrow=block;exitX=0.96;exitY=0.99;entryX=1;entryY=0.29;" edge="1" parent="1" source="14" target="12">
          <mxGeometry relative="1" as="geometry">
            <Array as="points">
              <mxPoint x="951" y="347" />
              <mxPoint x="951" y="381" />
            </Array>
          </mxGeometry>
        </mxCell>
        <mxCell id="31" value="Fill Shipping Details" style="curved=1;startArrow=none;endArrow=block;exitX=0;exitY=0.95;entryX=0.5;entryY=0;" edge="1" parent="1" source="12" target="7">
          <mxGeometry relative="1" as="geometry">
            <Array as="points">
              <mxPoint x="239" y="465" />
            </Array>
          </mxGeometry>
        </mxCell>
        <mxCell id="32" value="Select Payment Method" style="curved=1;startArrow=none;endArrow=block;exitX=0.5;exitY=0.99;entryX=0.5;entryY=0;" edge="1" parent="1" source="12" target="8">
          <mxGeometry relative="1" as="geometry">
            <Array as="points" />
          </mxGeometry>
        </mxCell>
        <mxCell id="33" value="Review Order" style="curved=1;startArrow=none;endArrow=block;exitX=0.64;exitY=0.99;entryX=0;entryY=0.16;" edge="1" parent="1" source="12" target="15">
          <mxGeometry relative="1" as="geometry">
            <Array as="points">
              <mxPoint x="517" y="465" />
              <mxPoint x="734" y="499" />
              <mxPoint x="734" y="533" />
            </Array>
          </mxGeometry>
        </mxCell>
        <mxCell id="34" value="Place Order" style="curved=1;startArrow=none;endArrow=block;exitX=0;exitY=0.94;entryX=0.5;entryY=0;" edge="1" parent="1" source="15" target="3">
          <mxGeometry relative="1" as="geometry">
            <Array as="points">
              <mxPoint x="788" y="617" />
            </Array>
          </mxGeometry>
        </mxCell>
        <mxCell id="35" value="Track Order" style="curved=1;startArrow=none;endArrow=block;exitX=0.49;exitY=0.99;entryX=0.5;entryY=0;" edge="1" parent="1" source="15" target="4">
          <mxGeometry relative="1" as="geometry">
            <Array as="points">
              <mxPoint x="937" y="617" />
            </Array>
          </mxGeometry>
        </mxCell>
        <mxCell id="36" value="Return Items" style="curved=1;startArrow=none;endArrow=block;exitX=1;exitY=0.94;entryX=0.5;entryY=0;" edge="1" parent="1" source="15" target="5">
          <mxGeometry relative="1" as="geometry">
            <Array as="points">
              <mxPoint x="1089" y="617" />
            </Array>
          </mxGeometry>
        </mxCell>
      </root>
    </mxGraphModel>
  </diagram>
</mxfile>
